<?xml version="1.0" encoding="UTF-8" standalone="no"?>
<svg
   width="64"
   height="64"
   version="1.1"
   id="svg7"
   sodipodi:docname="slingscold.svg"
   inkscape:export-filename="../../../../Dev/Git/FocuseWorkspaceApp/src/FocuseSpace/images/home.png"
   inkscape:export-xdpi="96"
   inkscape:export-ydpi="96"
   xmlns:inkscape="http://www.inkscape.org/namespaces/inkscape"
   xmlns:sodipodi="http://sodipodi.sourceforge.net/DTD/sodipodi-0.dtd"
   xmlns="http://www.w3.org/2000/svg"
   xmlns:svg="http://www.w3.org/2000/svg">
  <sodipodi:namedview
     id="namedview7"
     pagecolor="#ffffff"
     bordercolor="#111111"
     borderopacity="1"
     inkscape:showpageshadow="0"
     inkscape:pageopacity="0"
     inkscape:pagecheckerboard="1"
     inkscape:deskcolor="#d1d1d1" />
  <defs
     id="defs4">
    <linearGradient
       id="b"
       x1="102.3"
       x2="102.3"
       y1="-0.42699999"
       y2="199.17"
       gradientTransform="matrix(5.1,0,0,5.1,2,30.362)"
       gradientUnits="userSpaceOnUse">
      <stop
         offset="0"
         stop-color="#fff"
         id="stop1" />
      <stop
         offset="1"
         stop-color="#d7d7d7"
         id="stop2" />
    </linearGradient>
    <linearGradient
       id="c"
       x1="99.036003"
       x2="99.036003"
       y1="-0.505"
       y2="199.84"
       gradientTransform="matrix(4.59,0,0,4.59,53,81.362)"
       gradientUnits="userSpaceOnUse">
      <stop
         offset="0"
         stop-color="#cbe2e7"
         id="stop3" />
      <stop
         offset="1"
         stop-color="#797979"
         id="stop4" />
    </linearGradient>
    <filter
       id="a"
       width="1.072"
       height="1.072"
       x="-0.036"
       y="-0.036"
       color-interpolation-filters="sRGB">
      <feGaussianBlur
         stdDeviation="15.3"
         id="feGaussianBlur4" />
    </filter>
  </defs>
  <g
     stroke-width="17"
     id="g7">
    <g
       color="#000000"
       transform="matrix(0.05882,0,0,0.05882,1.882,0.22)"
       id="g6">
      <circle
         cx="512"
         cy="540.35999"
         r="510"
         filter="url(#a)"
         opacity="0.25"
         id="circle4" />
      <circle
         cx="512"
         cy="540.35999"
         r="510"
         fill="url(#b)"
         id="circle5"
         style="fill:url(#b)" />
      <circle
         cx="512"
         cy="540.35999"
         r="459"
         fill="url(#c)"
         id="circle6"
         style="fill:url(#c)" />
    </g>
    <path
       fill="#44494c"
       d="m 48.086,15 c -12.837,0 -21.82,11.84 -21.82,11.84 -9.273,1.229 -14.842,7.616 -14.842,7.616 2.58,-0.061 5.147,-0.556 9.2,-0.556 4.053,0 0.667,3.753 0.667,3.753 1.229,2.456 4.753,5.225 4.753,5.225 1.658,-1.781 3.558,-1.167 3.558,-1.167 v 9.338 C 36.112,45.46 36.3,37.152 36.3,37.152 48.216,29.352 48.085,15 48.085,15 Z m -10.507,7.365 a 3.756,3.756 0 0 1 3.752,3.752 3.756,3.756 0 0 1 -3.752,3.752 3.756,3.756 0 0 1 -3.752,-3.752 3.756,3.756 0 0 1 3.752,-3.752 z M 19.513,40.18 c 0,0 -3.975,3.804 -3.975,7.366 3.624,0 5.21,-0.502 7.421,-4.003 0,0 -1.274,1.057 -3.669,1.057 0,0 -0.637,-1.41 0.223,-4.42 z"
       id="path6" />
    <path
       fill="#292b2a"
       d="m 48.058,15 c -0.101,1.92 -1.167,14.64 -12.174,21.846 0,0 -0.249,8.225 -6.281,13.814 v 0.389 c 6.51,-5.59 6.698,-13.897 6.698,-13.897 11.915,-7.8 11.785,-22.153 11.785,-22.153 H 48.058 Z M 37.58,21.976 a 3.756,3.756 0 0 0 -3.752,3.752 c 0,0.068 0.024,0.128 0.028,0.195 0.104,-1.976 1.722,-3.558 3.724,-3.558 2.002,0 3.62,1.582 3.725,3.558 0,-0.067 0.027,-0.127 0.027,-0.195 A 3.756,3.756 0 0 0 37.58,21.976 Z M 20.624,33.511 c -3.85,0 -6.357,0.43 -8.81,0.528 -0.237,0.241 -0.39,0.417 -0.39,0.417 2.58,-0.061 5.147,-0.556 9.2,-0.556 1.373,0 1.887,0.431 1.974,1 0.097,-0.747 -0.306,-1.39 -1.973,-1.39 z m 0.806,3.974 -0.139,0.167 c 1.229,2.457 4.753,5.226 4.753,5.226 1.658,-1.782 3.558,-1.168 3.558,-1.168 v -0.389 c 0,0 -1.9,-0.614 -3.558,1.168 0,0 -3.292,-2.606 -4.614,-5.004 z m -1.917,2.697 c 0,0 -0.093,0.12 -0.112,0.139 -0.267,1.103 -0.357,1.959 -0.333,2.584 0.014,-0.688 0.122,-1.595 0.445,-2.723 z m 3.446,3.363 c 0,0 -0.202,0.124 -0.472,0.278 -1.976,2.851 -3.579,3.332 -6.921,3.335 -0.01,0.13 -0.028,0.26 -0.028,0.39 3.624,0 5.21,-0.503 7.422,-4.003 z"
       opacity="0.462"
       id="path7" />
  </g>
</svg>
